<?xml version="1.0" standalone="no"?>
<!DOCTYPE svg PUBLIC "-//W3C//DTD SVG 20010904//EN"
 "http://www.w3.org/TR/2001/REC-SVG-20010904/DTD/svg10.dtd">
<svg version="1.0" xmlns="http://www.w3.org/2000/svg"
 width="300.000000pt" height="201.000000pt" viewBox="0 0 300.000000 201.000000"
 preserveAspectRatio="xMidYMid meet">
<metadata>
Created by potrace 1.16, written by Peter Selinger 2001-2019
</metadata>
<g transform="translate(0.000000,201.000000) scale(0.100000,-0.100000)"
fill="#000000" stroke="none">
<path d="M2410 1401 c-130 -46 -187 -188 -119 -298 29 -47 70 -68 208 -108 68
-19 127 -38 132 -41 5 -3 9 -18 9 -34 0 -36 -23 -50 -85 -50 -35 0 -51 6 -70
25 -14 13 -25 29 -25 35 0 6 -39 10 -106 10 l-106 0 7 -32 c27 -122 117 -188
271 -196 191 -10 311 63 322 195 7 81 -5 120 -47 162 -40 40 -70 52 -219 92
-83 21 -112 38 -112 64 0 45 102 63 140 25 11 -11 20 -24 20 -30 0 -6 40 -10
100 -10 113 0 116 3 85 77 -21 50 -41 71 -100 101 -69 36 -222 42 -305 13z"/>
<path d="M120 1060 l0 -341 103 3 102 3 5 190 c3 105 7 183 8 175 1 -9 43 -83
93 -165 51 -83 99 -162 108 -177 16 -28 17 -28 119 -28 l102 0 0 340 0 341
-101 -3 -101 -3 0 -192 c0 -106 -2 -193 -4 -193 -3 0 -9 12 -15 28 -6 15 -56
102 -111 195 l-101 167 -104 0 -103 0 0 -340z"/>
<path d="M1620 1060 l0 -342 228 4 c215 3 230 4 275 27 62 30 96 81 104 154 7
68 -20 133 -68 161 l-31 18 21 19 c40 38 54 69 54 123 0 71 -28 117 -91 148
-44 22 -61 23 -269 26 l-223 4 0 -342z m371 173 c19 -19 15 -74 -6 -89 -12 -9
-45 -14 -87 -14 l-68 0 0 61 0 61 75 -4 c41 -2 80 -9 86 -15z m20 -252 c24
-30 24 -56 -1 -81 -17 -17 -33 -20 -100 -20 l-80 0 0 66 0 66 81 -4 c70 -3 83
-6 100 -27z"/>
<path d="M908 393 c-15 -4 -18 -17 -18 -89 0 -77 2 -84 19 -84 17 0 20 8 23
53 l3 52 30 -53 c25 -44 34 -52 55 -50 14 2 24 6 23 11 -2 4 -3 41 -3 82 0 68
-2 75 -20 75 -17 0 -20 -7 -20 -52 l0 -53 -29 48 c-34 58 -41 65 -63 60z"/>
<path d="M1090 392 c-6 -2 -10 -41 -10 -88 l0 -84 60 0 c77 0 100 20 100 85 0
49 -24 84 -60 86 -53 4 -81 4 -90 1z"/>
<path d="M1281 380 c-3 -8 -5 -24 -5 -35 1 -11 2 -44 3 -72 l1 -53 70 0 c56 0
70 3 70 15 0 11 -12 15 -50 15 -43 0 -50 3 -50 20 0 17 7 20 45 20 33 0 45 4
45 15 0 8 -8 16 -17 16 -10 1 -22 2 -28 4 -5 1 -18 3 -27 3 -10 1 -18 9 -18
17 0 11 12 15 50 15 38 0 50 4 50 15 0 10 -10 15 -27 16 -16 0 -45 1 -66 2
-26 1 -41 -3 -46 -13z"/>
<path d="M1488 392 l-38 -3 0 -85 c0 -76 2 -84 19 -84 14 0 21 8 23 28 3 24 8
28 46 33 45 6 62 20 62 54 0 43 -40 63 -112 57z"/>
<path d="M1634 391 c-2 -2 -4 -42 -4 -88 l0 -83 70 0 c56 0 70 3 70 15 0 11
-12 15 -50 15 -43 0 -50 3 -50 20 0 17 7 20 46 20 38 0 45 3 42 18 -2 13 -13
17 -43 17 -30 0 -41 5 -43 18 -3 14 5 17 47 17 37 0 51 4 51 14 0 11 -17 15
-66 18 -36 1 -68 1 -70 -1z"/>
<path d="M1813 393 c-9 -3 -13 -31 -13 -89 0 -77 2 -84 19 -84 17 0 20 8 23
53 l3 52 30 -52 c22 -39 36 -53 53 -53 21 0 22 4 22 83 0 88 -3 99 -26 90 -9
-3 -14 -22 -14 -57 l0 -51 -29 49 c-31 52 -48 66 -68 59z"/>
<path d="M1995 391 c-3 -2 -5 -42 -5 -88 l0 -83 58 0 c66 0 89 12 100 55 10
34 -2 90 -21 102 -14 9 -126 21 -132 14z"/>
<path d="M2200 392 c-6 -2 -10 -42 -10 -88 l0 -84 70 0 c56 0 70 3 70 15 0 11
-12 15 -50 15 -43 0 -50 3 -50 20 0 17 7 20 46 20 38 0 45 3 42 18 -3 16 -10
18 -65 21 -13 1 -23 7 -23 16 0 11 12 15 50 15 36 0 50 4 50 14 0 10 -17 15
-60 18 -33 1 -65 2 -70 0z"/>
<path d="M2373 393 c-9 -3 -13 -31 -13 -89 0 -77 2 -84 19 -84 17 0 20 8 23
53 l3 52 30 -52 c22 -39 36 -53 53 -53 21 0 22 3 22 85 0 78 -2 85 -20 85 -17
0 -20 -7 -20 -52 l0 -53 -29 49 c-31 52 -48 66 -68 59z"/>
<path d="M2743 390 c-46 -19 -40 -71 10 -90 47 -17 58 -24 60 -35 3 -14 -43
-19 -56 -6 -16 16 -47 13 -47 -4 0 -23 57 -48 96 -40 70 13 71 84 2 107 -49
17 -62 38 -24 38 14 0 26 -4 26 -10 0 -5 9 -10 20 -10 27 0 25 25 -2 44 -25
18 -52 19 -85 6z"/>
</g>
</svg>
